<?xml version="1.0" encoding="UTF-8"?>
<svg id="Layer_1" data-name="Layer 1" xmlns="http://www.w3.org/2000/svg" width="88" height="80.1" version="1.1" viewBox="0 0 88 80.1">
  <defs>
    <style>
      .cls-1 {
        fill: #0079be;
        stroke-width: 0px;
      }
    </style>
  </defs>
  <path class="cls-1" d="M86.9,57.4c0-1-.5-1.7-1.5-2-1.3-.5-2.7-.9-4.1-1.3-.2,0-.3-.2-.4-.4-.2-.6-.5-1.2-.7-1.8-.1-.2,0-.4,0-.6.7-1.3,1.3-2.5,1.9-3.8.4-.9.3-1.7-.4-2.4-.5-.5-1.1-1.1-1.7-1.7-.5-.5-1-.7-1.5-.7s-.7,0-1.1.3c-1.3.6-2.5,1.2-3.8,1.9-.1,0-.2,0-.3,0s-.2,0-.3,0c-.6-.3-1.2-.5-1.8-.7-.2,0-.3-.2-.4-.4-.4-1.4-.9-2.7-1.3-4.1-.3-1-1-1.5-2.1-1.5h-2.3c-1,0-1.7.5-2.1,1.5-.3.8-.5,1.6-.8,2.4s-.4,1.1-.5,1.6c0,.2-.2.3-.4.4-.6.2-1.2.5-1.8.8,0,0-.2,0-.3,0s-.2,0-.3,0c-1.3-.7-2.6-1.3-3.9-1.9-.3-.2-.7-.2-1-.2-.5,0-1,.2-1.5.6-.5.5-1.1,1.1-1.6,1.6-.8.8-.9,1.6-.4,2.6.6,1.2,1.2,2.5,1.9,3.8,0,.2,0,.3,0,.5-.2.4-.4.9-.5,1.3,0,.2-.1.3-.2.5,0,.3-.2.4-.5.5-1.3.4-2.7.9-4,1.3-1,.3-1.5,1-1.5,2.1v2.3c0,1,.5,1.7,1.5,2,1.3.5,2.7.9,4.1,1.3.2,0,.3.2.4.4.2.6.5,1.2.8,1.8,0,.2,0,.4,0,.6-.6,1.2-1.3,2.5-1.9,3.8-.5,1-.3,1.8.4,2.6.5.5,1.1,1.1,1.6,1.6s1,.7,1.5.7.7,0,1.1-.3c1.3-.6,2.5-1.2,3.8-1.9.1,0,.2,0,.3,0s.2,0,.3,0c.6.3,1.2.5,1.8.7.2,0,.3.2.4.4.4,1.4.9,2.7,1.3,4.1.3,1,1,1.5,2.1,1.5h2.3c1,0,1.8-.5,2.1-1.5.5-1.3.9-2.7,1.3-4.1,0-.2.2-.3.4-.4.6-.2,1.2-.5,1.8-.8,0,0,.2,0,.3,0s.2,0,.3,0c1.3.7,2.6,1.3,3.9,1.9.3.1.6.2.8.3.8,0,1.2-.2,1.7-.7s1.1-1.1,1.6-1.6c.8-.8.9-1.6.4-2.7-.6-1.2-1.2-2.5-1.9-3.7,0-.2,0-.3,0-.5.3-.6.5-1.2.7-1.7,0-.3.2-.4.5-.5,1.3-.4,2.7-.9,4-1.3,1-.3,1.5-1,1.5-2.1v-2.3h0ZM66.4,67.1h0c-4.7,0-8.5-3.8-8.5-8.5,0-.2,0-.4,0-.6,0-1.4.5-2.6,1.2-3.7,0,0,0,0,0-.2.2-.3.4-.7.7-1,.7-.8,1.5-1.5,2.4-2,.6-.3,1.2-.6,1.9-.8,0,0,.2,0,.2,0,.2,0,.5-.1.8-.2,0,0,.2,0,.3,0,.3,0,.7,0,1,0h0c.3,0,.6,0,.8,0,4.3.4,7.7,4,7.7,8.5,0,4.7-3.8,8.6-8.5,8.6h0ZM55,27.7c0-1.3-.7-2.2-1.9-2.6-1.8-.6-3.5-1.2-5.3-1.8-.3,0-.4-.2-.5-.5-.3-.8-.6-1.6-1-2.3-.1-.3-.1-.5,0-.8.8-1.7,1.7-3.3,2.5-5,.6-1.1.4-2.3-.5-3.2-.7-.7-1.4-1.4-2.2-2.2-.6-.6-1.3-.9-2-.9s-.9.1-1.4.4c-1.6.8-3.3,1.6-4.9,2.5-.1,0-.3.1-.4.1s-.2,0-.4,0c-.8-.4-1.6-.7-2.3-1-.3-.1-.4-.2-.5-.5-.6-1.8-1.2-3.5-1.8-5.3-.4-1.3-1.3-1.9-2.7-2h-3c-1.3,0-2.3.7-2.7,1.9-.4,1.1-.7,2.1-1.1,3.2s-.5,1.4-.7,2.1c0,.3-.2.4-.5.5-.8.3-1.6.6-2.4,1-.1,0-.2,0-.3,0s-.2,0-.4,0c-1.7-.8-3.4-1.7-5-2.5-.4-.2-.9-.3-1.3-.3-.7,0-1.3.3-1.9.8-.7.7-1.4,1.4-2.1,2.1-1,1-1.2,2.1-.5,3.4.8,1.6,1.6,3.3,2.5,4.9.1.2.1.4,0,.7-.3.6-.5,1.1-.7,1.7,0,.2-.2.4-.2.6-.1.3-.3.5-.6.6-1.7.6-3.5,1.1-5.2,1.7-1.3.4-1.9,1.3-1.9,2.7v3c0,1.3.7,2.2,1.9,2.6,1.8.6,3.5,1.2,5.3,1.8.3,0,.4.2.5.5.3.8.6,1.6,1,2.3.1.3.1.5,0,.7-.8,1.6-1.6,3.3-2.5,4.9-.6,1.3-.5,2.4.5,3.4.7.7,1.4,1.4,2.1,2.1s1.3.9,2,.9.9-.1,1.4-.4c1.6-.8,3.3-1.6,4.9-2.5.1,0,.3-.1.4-.1s.2,0,.4,0c.8.4,1.6.7,2.3,1,.3.1.4.2.5.5.6,1.8,1.2,3.5,1.8,5.3.4,1.3,1.4,2,2.7,2h2.9c1.4,0,2.3-.7,2.7-2,.6-1.8,1.2-3.5,1.8-5.3,0-.3.2-.4.5-.5.8-.3,1.6-.6,2.4-1,.1,0,.2,0,.3,0s.2,0,.4,0c1.7.8,3.4,1.7,5,2.5.4.2.8.3,1,.3,1,0,1.6-.3,2.2-.8s1.4-1.4,2.1-2.1c1.1-1.1,1.2-2.1.5-3.5-.8-1.6-1.6-3.2-2.4-4.9-.1-.2-.1-.4,0-.7.3-.7.7-1.5.9-2.3.1-.3.3-.5.6-.6,1.7-.6,3.5-1.1,5.2-1.7,1.3-.4,1.9-1.4,1.9-2.7v-3h0ZM28.3,40.4h0c-6.1,0-11.1-5-11.1-11.1,0-.3,0-.5,0-.8.1-1.8.7-3.4,1.5-4.9,0,0,0-.1.1-.2.3-.4.6-.9.9-1.3.9-1,1.9-1.9,3.1-2.6.8-.4,1.6-.8,2.5-1,.1,0,.2,0,.3,0,.3,0,.7-.1,1-.2.1,0,.2,0,.4,0,.4,0,.9,0,1.3,0h0c.4,0,.7,0,1.1,0,5.6.5,10,5.3,10,11.1,0,6.1-5,11.2-11.1,11.2h0Z"/>
</svg>