<?xml version="1.0" encoding="UTF-8"?><svg id="Layer_1" xmlns="http://www.w3.org/2000/svg" viewBox="0 0 70 77.09"><defs><style type="text/css">.cls-1{fill:#0079be;}</style></defs><path class="cls-1" d="M33.26,59.38c.48,.48,1.1,.71,1.72,.71s1.25-.24,1.72-.71l17.14-17.14c.95-.95,.95-2.49,0-3.44s-2.49-.95-3.44,0l-12.99,12.99V3.22c0-1.35-1.09-2.44-2.44-2.44s-2.44,1.09-2.44,2.44V51.77l-12.99-12.98c-.95-.95-2.49-.95-3.44,0s-.95,2.49,0,3.44l17.14,17.14ZM66.85,23.34c-1.34,0-2.44,1.09-2.44,2.44v45.38c0,.15-.12,.27-.27,.27H5.85c-.15,0-.27-.12-.27-.27V25.78c0-1.35-1.09-2.44-2.44-2.44s-2.44,1.09-2.44,2.44v45.38c0,2.83,2.31,5.14,5.14,5.14h58.3c2.83,0,5.14-2.31,5.14-5.14V25.78c0-1.35-1.09-2.44-2.44-2.44Z"/></svg>