<?xml version="1.0" encoding="UTF-8"?><svg id="Layer_1" xmlns="http://www.w3.org/2000/svg" viewBox="0 0 89.9 83.37"><defs><style type="text/css">.cls-1{fill:#0079be;}.cls-2{fill:#fff;}</style></defs><path class="cls-1" d="M83.54,26.3h-18.09v4.87h18.09c.15,0,.27,.12,.27,.27v33.07c0,.15-.12,.27-.27,.27h-3.77c-1.35,0-2.44,1.09-2.44,2.44v6.62l-8.34-8.34c-.46-.46-1.08-.71-1.72-.71H35.27c-.15,0-.27-.12-.27-.27v-17.51h-4.87v17.51c0,2.83,2.31,5.14,5.14,5.14h30.99l11.78,11.78c.47,.47,1.09,.71,1.72,.71,.31,0,.63-.06,.93-.19,.91-.38,1.5-1.26,1.5-2.25v-10.06h1.33c2.83,0,5.14-2.31,5.14-5.14V31.45c0-2.83-2.31-5.14-5.14-5.14Zm-20.52,13.12V6.36c0-2.83-2.31-5.14-5.14-5.14H6.36C3.52,1.22,1.22,3.52,1.22,6.36V39.43c0,2.83,2.31,5.14,5.14,5.14h2.96v10.06c0,.99,.59,1.87,1.5,2.25,.3,.12,.62,.19,.93,.19,.63,0,1.26-.25,1.72-.71l11.78-11.78H57.87c2.83,0,5.14-2.31,5.14-5.14Z"/><path class="cls-2" d="M31.56,31.18c-.9,0-1.64,.28-2.22,.83s-.87,1.25-.87,2.1,.28,1.52,.85,2.07c.56,.54,1.31,.82,2.24,.82s1.67-.27,2.24-.82c.56-.54,.85-1.23,.85-2.07s-.29-1.55-.87-2.1-1.32-.83-2.22-.83Zm6.64-20.56c-1.48-1.3-3.57-1.95-6.26-1.95s-4.77,.69-6.31,2.06-2.32,3.27-2.35,5.69h5.52c.02-1.02,.32-1.81,.88-2.39,.56-.58,1.32-.87,2.25-.87,1.98,0,2.97,1.07,2.97,3.22,0,.71-.19,1.39-.57,2.03-.38,.64-1.15,1.47-2.29,2.5-1.15,1.02-1.94,2.06-2.37,3.11-.43,1.05-.65,2.47-.65,4.25h4.87l.08-1.16c.14-1.24,.69-2.33,1.66-3.26l1.54-1.47c1.2-1.17,2.05-2.23,2.53-3.19,.48-.96,.72-1.98,.72-3.06,0-2.37-.74-4.21-2.23-5.51Z"/></svg>