<?xml version="1.0" encoding="UTF-8"?>
<svg id="Layer_1" xmlns="http://www.w3.org/2000/svg" width="38.9" height="38.7" version="1.1" viewBox="0 0 38.9 38.7">
  <!-- Generator: Adobe Illustrator 29.8.2, SVG Export Plug-In . SVG Version: 2.1.1 Build 3)  -->
  <defs>
    <style>
      .st0 {
        fill: #fff;
      }

      .st1 {
        fill: none;
        stroke: #010101;
      }

      .st1, .st2 {
        stroke-miterlimit: 10;
        stroke-width: 3px;
      }

      .st2 {
        fill: #162c53;
        stroke: #162c53;
      }
    </style>
  </defs>
  <polyline class="st1" points="18 30.7 5.8 30.7 5.8 19.2"/>
  <polyline class="st1" points="5.8 3.7 5.8 1.5 30 1.5 30 16.8"/>
  <rect class="st2" x="1.5" y="6.4" width="16.7" height="10"/>
  <polygon class="st2" points="32.4 19.7 32.4 28.6 35.4 28.6 28 36.5 20.7 28.6 23.7 28.6 23.7 19.7 32.4 19.7"/>
  <g>
    <path class="st0" d="M3.7,9.3h2c1.2,0,1.7.4,1.7,1.5s-.4,1.5-1.7,1.5h-1.1v1.2h-.9v-4.2ZM5.8,11.5c.6,0,.7-.1.7-.7s-.2-.7-.7-.7h-1.1v1.4h1.1Z"/>
    <path class="st0" d="M8.1,9.3h1.9c1.6,0,2,.5,2,2.1s-.4,2.1-2,2.1h-1.9v-4.2ZM10,12.7c.9,0,1.1-.2,1.1-1.3s-.2-1.3-1.1-1.3h-.9v2.6h.9Z"/>
    <path class="st0" d="M12.8,9.3h3.2v.8h-2.3v1h2.1v.8h-2.1v1.6h-.9v-4.2Z"/>
  </g>
</svg>