<?xml version="1.0" encoding="UTF-8"?>
<svg id="Layer_1" xmlns="http://www.w3.org/2000/svg" width="70" height="77.8" version="1.1" viewBox="0 0 70 77.8">
  <!-- Generator: Adobe Illustrator 29.6.1, SVG Export Plug-In . SVG Version: 2.1.1 Build 9)  -->
  <defs>
    <style>
      .st0 {
        fill: #0079be;
      }
    </style>
  </defs>
  <path class="st0" d="M31.1,26.9h24.1c1.8,0,3.2-1.5,3.2-3.2s-1.5-3.2-3.2-3.2h-24.1c-1.8,0-3.2,1.5-3.2,3.2s1.5,3.2,3.2,3.2ZM55.5,50.8h-24.3c-1.8,0-3.2,1.5-3.2,3.2s1.5,3.2,3.2,3.2h24.3c1.8,0,3.2-1.5,3.2-3.2s-1.5-3.2-3.2-3.2ZM63.8,1.1H6.2C3.3,1.1,1,3.4,1,6.3v65.2c0,2.8,2.3,5.1,5.1,5.1h57.7c2.8,0,5.1-2.3,5.1-5.1V6.3c0-2.8-2.3-5.1-5.1-5.1ZM64.1,71.5c0,.2-.1.3-.3.3H6.2c-.2,0-.3-.1-.3-.3V6.3c0-.2.1-.3.3-.3h57.7c.2,0,.3.1.3.3v65.2ZM55.6,35.6h-24.5c-1.8,0-3.2,1.5-3.2,3.2s1.5,3.2,3.2,3.2h24.5c1.8,0,3.2-1.5,3.2-3.2s-1.5-3.2-3.2-3.2Z"/>
  <g>
    <path class="st0" d="M21.8,48.8l-8.2,9.2c-.6.7-.5,1.7.1,2.3s1.7.5,2.3-.1l8.2-9.2c.6-.7.5-1.7-.1-2.3s-1.7-.5-2.3.1Z"/>
    <path class="st0" d="M16.2,58.2l-2.5-4c-.5-.8-1.5-1-2.3-.5s-1,1.5-.5,2.3l2.5,4c.5.8,1.5,1,2.3.5s1-1.5.5-2.3Z"/>
  </g>
  <g>
    <path class="st0" d="M21.8,33.1l-8.2,9.2c-.6.7-.5,1.7.1,2.3s1.7.5,2.3-.1l8.2-9.2c.6-.7.5-1.7-.1-2.3s-1.7-.5-2.3.1Z"/>
    <path class="st0" d="M16.2,42.5l-2.5-4c-.5-.8-1.5-1-2.3-.5s-1,1.5-.5,2.3l2.5,4c.5.8,1.5,1,2.3.5s1-1.5.5-2.3Z"/>
  </g>
  <g>
    <path class="st0" d="M21.8,17.4l-8.2,9.2c-.6.7-.5,1.7.1,2.3s1.7.5,2.3-.1l8.2-9.2c.6-.7.5-1.7-.1-2.3s-1.7-.5-2.3.1Z"/>
    <path class="st0" d="M16.2,26.8l-2.5-4c-.5-.8-1.5-1-2.3-.5s-1,1.5-.5,2.3l2.5,4c.5.8,1.5,1,2.3.5s1-1.5.5-2.3Z"/>
  </g>
</svg>