<?xml version="1.0" encoding="UTF-8"?>
<svg id="Layer_1" xmlns="http://www.w3.org/2000/svg" width="91" height="70.6" version="1.1" viewBox="0 0 91 70.6">
  <!-- Generator: Adobe Illustrator 29.4.0, SVG Export Plug-In . SVG Version: 2.1.0 Build 152)  -->
  <defs>
    <style>
      .st0 {
        fill: #0079be;
      }
    </style>
  </defs>
  <path class="st0" d="M37.1,38.8h6.6c.6,0,1-.4,1-1v-18.3c0-.6-.4-1-1-1h-14.1c-.6,0-1,.4-1,1v18.3c0,.6.4,1,1,1h6.6"/>
  <path class="st0" d="M57.1,55h6.6c.6,0,1-.4,1-1v-18.3c0-.6-.4-1-1-1h-14.1c-.6,0-1,.4-1,1v18.3c0,.6.4,1,1,1h6.6"/>
  <path class="st0" d="M37.1,55h6.6c.6,0,1-.4,1-1v-10.9c0-.6-.4-1-1-1h-14.1c-.6,0-1,.4-1,1v10.9c0,.6.4,1,1,1h6.6"/>
  <path class="st0" d="M57.1,30.8h6.6c.6,0,1-.4,1-1v-10.2c0-.6-.4-1-1-1h-14.1c-.6,0-1,.4-1,1v10.2c0,.6.4,1,1,1h6.6"/>
</svg>