<?xml version="1.0" encoding="UTF-8"?>
<svg id="Layer_1" xmlns="http://www.w3.org/2000/svg" width="19" height="19" version="1.1" viewBox="0 0 19 19">
  <!-- Generator: Adobe Illustrator 29.5.1, SVG Export Plug-In . SVG Version: 2.1.0 Build 141)  -->
  <defs>
    <style>
      .st0 {
        fill: #0f2f50;
      }

      .st1 {
        fill: #027bb8;
      }
    </style>
  </defs>
  <path class="st1" d="M18.5.1s.1,0,.1,0c0,0,0,0,0,0h0s0,0,0,0c0,0,0,0,0,0h0s0,0,0,0h0s0,0,0,0h0c0,0,0,.2,0,.2,0,0,0,.1,0,.2v6.5c0,.3-.1.5-.3.6h0c-.2.2-.4.3-.6.3s-.5-.1-.6-.3h0c-.2-.2-.3-.4-.3-.6V3.1L7.8,12.5c-.2.2-.4.3-.6.3s-.5,0-.6-.3c-.2-.2-.3-.4-.3-.6s0-.5.3-.6L15.9,1.8h-4.3c-.3,0-.5-.1-.6-.3h0c-.2-.2-.2-.4-.2-.6s.1-.5.3-.6h0c.2-.2.4-.3.6-.3h6.5c0,0,.1,0,.2,0,0,0,.1,0,.2,0h0Z"/>
  <path class="st0" d="M13.3,9.2c0-.3.1-.5.3-.6h0c.2-.2.4-.3.6-.3s.5.1.6.3c.2.2.3.4.3.6v8.9c0,.3-.1.5-.3.6h0c-.2.2-.4.3-.6.3H.9c-.3,0-.5-.1-.6-.3h0c-.2-.2-.2-.4-.2-.6V4.7c0-.3.1-.5.3-.6h0c.2-.2.4-.3.6-.3h8.8c.3,0,.5.1.6.3h0c.2.2.3.4.3.6s-.1.5-.3.6h0c-.2.2-.4.3-.6.3H1.8v11.5h11.5v-8Z"/>
</svg>