<?xml version="1.0" encoding="utf-8"?>
<!-- Generator: Adobe Illustrator 26.3.1, SVG Export Plug-In . SVG Version: 6.00 Build 0)  -->
<svg version="1.1" id="Layer_1" xmlns="http://www.w3.org/2000/svg" xmlns:xlink="http://www.w3.org/1999/xlink" x="0px" y="0px"
	 width="19px" height="19px" viewBox="0 0 19 19" style="enable-background:new 0 0 19 19;" xml:space="preserve">
<style type="text/css">
	.st0{fill:#027BB8;}
	.st1{fill:#2EB4A6;}
</style>
<path class="st0" d="M7.6,17.8l3.7-3.7c0.5-0.5,0.8-1.1,1.1-1.7c0.3-0.9,0.3-2,0-2.9c-0.2-0.6-0.6-1.2-1.1-1.7S10.2,7,9.6,6.7
	L9.5,6.8c-0.8,0.8-0.8,2,0,2.8s0.8,2,0,2.8l-0.1,0.1l-3.6,3.6c-0.8,0.8-2,0.8-2.8,0c-0.8-0.8-0.8-2,0-2.8l3.6-3.6
	c-0.3-0.9-0.3-2,0-2.9C6.1,7,5.5,7.3,5,7.8l-3.7,3.7c-1.7,1.7-1.7,4.6,0,6.3C3,19.5,5.9,19.5,7.6,17.8z"/>
<path class="st1" d="M12.3,12.4c0.6-0.2,1.2-0.6,1.7-1.1l3.7-3.7c1.7-1.7,1.7-4.6,0-6.3s-4.6-1.7-6.3,0L7.7,5.1
	c-0.5,0.5-0.8,1-1,1.7c-0.3,0.9-0.3,2,0,2.9c0.2,0.6,0.6,1.2,1.1,1.7s1.1,0.8,1.7,1.1l0.1-0.1c0.8-0.8,0.8-2,0-2.8s-0.8-2,0-2.8
	l3.7-3.7c0.8-0.8,2-0.8,2.8,0c0.8,0.8,0.8,2,0,2.8l-3.6,3.6C12.7,10.5,12.7,11.5,12.3,12.4z"/>
</svg>
