<?xml version="1.0" encoding="UTF-8"?><svg id="Layer_1" xmlns="http://www.w3.org/2000/svg" viewBox="0 0 91 69.99"><defs><style type="text/css">.cls-1{fill:#0079be;}</style></defs><path class="cls-1" d="M89.33,27.44c-.77-1.04-2.08-1.63-3.59-1.63h-6.49V5.9c0-2.83-2.31-5.14-5.14-5.14h-23.39c-2.1,0-3.97,1.26-4.76,3.2l-1.94,4.76c-.04,.1-.14,.17-.25,.17H6.13c-2.83,0-5.14,2.31-5.14,5.14v50.07c0,2.83,2.31,5.14,5.14,5.14H74.11c1.47,0,2.79-.63,3.73-1.62,.77-.61,1.35-1.38,1.62-2.25l10.41-34.79c.33-1.1,.13-2.24-.53-3.13ZM5.86,51.27V14.02c0-.15,.12-.27,.27-.27H43.77c2.1,0,3.97-1.26,4.76-3.2l1.94-4.76c.04-.1,.14-.17,.25-.17h23.39c.15,0,.27,.12,.27,.27V25.81H17.76c-2.44,0-4.74,1.53-5.34,3.55l-6.56,21.91Zm69.55,12.84c-.09,.17-.64,.56-1.3,.56H6.26L16.45,30.6c.09-.17,.64-.56,1.3-.56H85.6l-10.19,34.08Z"/></svg>