<?xml version="1.0" encoding="utf-8"?>
<!-- Generator: Adobe Illustrator 30.1.0, SVG Export Plug-In . SVG Version: 9.03 Build 0)  -->
<svg version="1.0" id="Layer_1" xmlns="http://www.w3.org/2000/svg" xmlns:xlink="http://www.w3.org/1999/xlink" x="0px" y="0px"
	 viewBox="0 0 66 75" style="enable-background:new 0 0 66 75;" xml:space="preserve">
<style type="text/css">
	.st0{fill:#0076BC;}
	.st1{fill:#0079BE;}
</style>
<path class="st0" d="M60.9,5V70H5.1V20.7L21.1,5 M20.9,0c-1.1,0-2.1,0.4-2.9,1.2L1.2,17.6C0.4,18.3,0,19.4,0,20.4V71
	c0,2.2,1.8,4,4.1,4h57.9c2.2,0,4.1-1.8,4.1-4V4c0-2.2-1.8-4-4.1-4H20.9z"/>
<path class="st0" d="M17.3,21.1H0L21.4,0v17.1C21.4,19.3,19.6,21.1,17.3,21.1z"/>
<path class="st1" d="M53.8,27.2H11.9c-1.8,0-3.3,1.4-3.3,3.2c0,1.7,1.5,3.2,3.3,3.2h41.9c1.8,0,3.3-1.4,3.3-3.2
	C57.1,28.6,55.6,27.2,53.8,27.2z"/>
<path class="st1" d="M53.8,41.5H11.9c-1.8,0-3.3,1.4-3.3,3.2c0,1.7,1.5,3.2,3.3,3.2h41.9c1.8,0,3.3-1.4,3.3-3.2
	C57.1,42.9,55.6,41.5,53.8,41.5z"/>
<path class="st1" d="M53.8,55.8H11.9c-1.8,0-3.3,1.4-3.3,3.2c0,1.7,1.5,3.2,3.3,3.2h41.9c1.8,0,3.3-1.4,3.3-3.2
	C57.1,57.2,55.6,55.8,53.8,55.8z"/>
<path class="st1" d="M53.8,12.1H28.1c-1.8,0-3.3,1.5-3.3,3.2s1.5,3.2,3.3,3.2h25.7c1.8,0,3.3-1.5,3.3-3.2S55.6,12.1,53.8,12.1z"/>
</svg>
