<?xml version="1.0" encoding="UTF-8"?><svg id="Layer_1" xmlns="http://www.w3.org/2000/svg" viewBox="0 0 88 80.1"><defs><style type="text/css">.cls-1{fill:#0079be;}</style></defs><path class="cls-1" d="M46.52,53.1H6.46c-.18,0-.31-.08-.4-.23-.09-.15-.08-.31,0-.46L34.14,6.17c.09-.15,.22-.22,.39-.22s.3,.07,.39,.22l20.8,34.25c.21,.07,.41,.15,.61,.25,1.04,.51,2.08,1.03,3.11,1.55,.12-.05,.24-.1,.36-.15,.31-.93,.62-1.86,.93-2.79L39.08,3.64c-.97-1.6-2.68-2.56-4.55-2.56h0c-1.88,0-3.58,.96-4.55,2.56L1.91,49.88c-1.01,1.67-1.05,3.68-.09,5.38,.96,1.7,2.69,2.71,4.64,2.71H43.52c0-.19,0-.38,0-.58,.01-2.02,1.13-3.61,3-4.29Zm40.35,4.28c0-1-.52-1.71-1.48-2.03-1.35-.45-2.7-.91-4.06-1.35-.21-.07-.33-.18-.41-.4-.22-.6-.47-1.19-.73-1.77-.11-.23-.1-.41,.01-.63,.65-1.27,1.29-2.54,1.92-3.82,.43-.88,.29-1.73-.39-2.42-.54-.55-1.1-1.1-1.65-1.65-.47-.46-.96-.7-1.5-.7-.34,0-.69,.09-1.06,.28-1.26,.62-2.51,1.25-3.76,1.89-.11,.06-.21,.09-.32,.09-.09,0-.18-.02-.28-.07-.59-.27-1.19-.51-1.8-.74-.2-.08-.31-.18-.38-.39-.44-1.36-.9-2.71-1.35-4.06-.32-.97-1.03-1.49-2.05-1.5-.37,0-.74,0-1.1,0-.41,0-.82,0-1.23,0-1.02,0-1.73,.52-2.06,1.49-.27,.81-.54,1.62-.81,2.43-.18,.54-.36,1.08-.54,1.62-.07,.2-.17,.32-.37,.39-.62,.23-1.23,.48-1.83,.76-.1,.04-.18,.07-.26,.07-.09,0-.18-.03-.27-.07-1.28-.65-2.57-1.29-3.86-1.93-.34-.17-.68-.25-1-.25-.53,0-1.02,.22-1.45,.64-.54,.54-1.09,1.08-1.62,1.62-.78,.79-.91,1.62-.41,2.62,.63,1.25,1.25,2.51,1.89,3.76,.1,.19,.09,.34,0,.54-.2,.43-.38,.87-.55,1.3-.06,.15-.13,.31-.18,.46-.09,.26-.24,.38-.48,.46-1.33,.43-2.66,.88-3.99,1.32-.97,.33-1.48,1.03-1.49,2.06,0,.78,0,1.55,0,2.33,0,1,.52,1.71,1.48,2.03,1.35,.45,2.7,.91,4.06,1.35,.22,.07,.33,.18,.41,.4,.23,.61,.48,1.21,.75,1.8,.1,.21,.09,.37-.01,.57-.64,1.25-1.26,2.51-1.89,3.76-.48,.96-.35,1.81,.4,2.57,.53,.54,1.07,1.07,1.6,1.6,.46,.46,.96,.7,1.5,.7,.34,0,.69-.09,1.06-.28,1.26-.62,2.51-1.25,3.76-1.89,.11-.06,.21-.09,.32-.09,.09,0,.18,.02,.28,.07,.59,.27,1.19,.51,1.8,.74,.2,.08,.31,.18,.38,.39,.44,1.36,.9,2.71,1.35,4.06,.33,.99,1.04,1.5,2.08,1.5,.36,0,.71,0,1.07,0,.4,0,.79,0,1.19,0,1.04,0,1.76-.51,2.09-1.5,.46-1.35,.91-2.7,1.35-4.06,.07-.2,.17-.32,.37-.39,.62-.23,1.23-.48,1.83-.76,.1-.04,.18-.07,.26-.07,.09,0,.17,.02,.27,.07,1.28,.65,2.57,1.3,3.86,1.93,.29,.14,.62,.21,.78,.26,.75-.02,1.25-.23,1.67-.65,.53-.53,1.07-1.06,1.6-1.6,.82-.82,.94-1.63,.42-2.67-.62-1.24-1.24-2.49-1.87-3.73-.1-.19-.09-.34,0-.54,.26-.57,.51-1.15,.72-1.74,.1-.26,.23-.41,.49-.49,1.33-.43,2.67-.88,3.99-1.32,.97-.33,1.48-1.04,1.49-2.06,0-.78,0-1.55,0-2.33Zm-20.44,9.71s-.02,0-.04,0c-4.71-.02-8.53-3.84-8.52-8.53,0-.2,.02-.4,.03-.59,.1-1.36,.51-2.62,1.16-3.73,.03-.05,.06-.1,.09-.15,.21-.34,.44-.68,.7-.99,.66-.79,1.46-1.46,2.36-1.97,.59-.33,1.23-.6,1.9-.78,.08-.02,.15-.04,.23-.06,.25-.06,.51-.11,.77-.15,.09-.01,.18-.03,.27-.04,.34-.04,.68-.07,1.03-.07h0c.28,0,.56,.02,.83,.04,4.31,.42,7.69,4.05,7.7,8.47,.01,4.71-3.82,8.56-8.52,8.56Zm-33.99-19.56c.56,.54,1.3,.82,2.22,.82s1.67-.27,2.24-.82c.56-.54,.85-1.24,.85-2.07s-.28-1.55-.85-2.09c-.56-.54-1.31-.82-2.24-.82s-1.65,.28-2.22,.83c-.56,.55-.85,1.25-.85,2.08s.28,1.53,.85,2.07Zm5.15-27.19h-5.86l.65,19.2h4.57l.65-19.2Z"/></svg>