<?xml version="1.0" encoding="utf-8"?>
<!-- Generator: Adobe Illustrator 25.4.1, SVG Export Plug-In . SVG Version: 6.00 Build 0)  -->
<svg version="1.1" id="Layer_1" xmlns="http://www.w3.org/2000/svg" xmlns:xlink="http://www.w3.org/1999/xlink" x="0px" y="0px" width="17.3pt" height="24pt" 
	 viewBox="0 0 17.3 24" style="enable-background:new 0 0 17.3 24;" xml:space="preserve">
<style type="text/css">
	.st0{fill:#067BB8;stroke:#067BB8;stroke-width:0.5;stroke-miterlimit:10;}
	.st1{fill:#FFFFFF;}
</style>
<g>
	<path class="st0" d="M13.1,18.8v-0.3c0-1.5,0.6-3,1.6-4.1c1.2-1.3,2-3,2.1-4.9c0.4-4.7-3.2-8.8-8-8.9C4.3,0.4,0.4,4.2,0.4,8.8
		c0,2.2,0.9,4.2,2.2,5.6c1,1,1.5,2.6,1.5,4v0.3H13.1z"/>
	<path class="st0" d="M4.3,19.9v1c0,1.2,1,2.2,2.2,2.2h1l0,0c0.7,0.3,1.5,0.3,2.2,0l0,0h1c1.2,0,2.2-1,2.2-2.2v-1H4.3z"/>
	<path class="st1" d="M14.5,8.2l-1-0.1c-0.4,0-0.6-0.3-0.7-0.7l-0.2-1.3c-0.1-0.5,0.4-1,0.9-0.9l1,0.1c0.4,0,0.6,0.3,0.7,0.7
		l0.2,1.3C15.4,7.8,15,8.3,14.5,8.2z"/>
</g>
</svg>