<?xml version="1.0" encoding="UTF-8"?><svg id="Layer_1" xmlns="http://www.w3.org/2000/svg" viewBox="0 0 70 77.76"><defs><style type="text/css">.cls-1{fill:#0079be;}</style></defs><path class="cls-1" d="M17.39,35.63c-1.79,0-3.25,1.46-3.25,3.25s1.46,3.25,3.25,3.25h.07c1.79,0,3.25-1.46,3.25-3.25s-1.46-3.25-3.32-3.25Zm0,15.21c-1.79,0-3.25,1.46-3.25,3.25s1.46,3.25,3.25,3.25h.07c1.79,0,3.25-1.46,3.25-3.25s-1.46-3.25-3.32-3.25Zm10.76-23.92h18.07c1.79,0,3.25-1.46,3.25-3.25s-1.46-3.25-3.25-3.25H28.15c-1.79,0-3.25,1.46-3.25,3.25s1.46,3.25,3.25,3.25Zm22.32,23.92H28.15c-1.79,0-3.25,1.46-3.25,3.25s1.46,3.25,3.25,3.25h22.32c1.79,0,3.25-1.46,3.25-3.25s-1.46-3.25-3.25-3.25ZM63.85,1.12H6.15C3.31,1.12,1.01,3.43,1.01,6.26V71.5c0,2.83,2.31,5.14,5.14,5.14H63.85c2.83,0,5.14-2.31,5.14-5.14V6.26c0-2.83-2.31-5.14-5.14-5.14Zm.27,70.38c0,.15-.12,.27-.27,.27H6.15c-.15,0-.27-.12-.27-.27V6.26c0-.15,.12-.27,.27-.27H63.85c.15,0,.27,.12,.27,.27V71.5ZM17.39,20.41c-1.79,0-3.25,1.46-3.25,3.25s1.46,3.25,3.25,3.25h.07c1.79,0,3.25-1.46,3.25-3.25s-1.46-3.25-3.32-3.25Zm35.22,15.21H28.15c-1.79,0-3.25,1.46-3.25,3.25s1.46,3.25,3.25,3.25h24.46c1.79,0,3.25-1.46,3.25-3.25s-1.46-3.25-3.25-3.25Z"/></svg>