<?xml version="1.0" encoding="UTF-8"?><svg id="Layer_1" xmlns="http://www.w3.org/2000/svg" viewBox="0 0 98 83"><defs><style type="text/css">.cls-1{fill:#0079be;}</style></defs><path class="cls-1" d="M96.37,45.55c0-1-.52-1.71-1.48-2.03-1.35-.45-2.7-.91-4.06-1.35-.21-.07-.33-.18-.41-.4-.22-.6-.47-1.19-.73-1.77-.11-.23-.1-.41,.01-.63,.65-1.27,1.29-2.54,1.92-3.82,.43-.88,.29-1.73-.39-2.42-.54-.55-1.1-1.1-1.65-1.65-.47-.46-.96-.7-1.5-.7-.34,0-.69,.09-1.06,.28-1.26,.62-2.51,1.25-3.76,1.89-.11,.06-.21,.09-.32,.09-.09,0-.18-.02-.28-.07-.5-.23-1.02-.43-1.53-.63,.35-1.49,.57-3.02,.64-4.58,.33-6.76-2-13.24-6.55-18.25S64.45,1.55,57.69,1.22c-6.76-.34-13.24,2-18.25,6.55-5.01,4.55-7.95,10.78-8.27,17.53-.31,6.46,1.8,12.66,5.96,17.57l-6.85,6.85c-1.9-1.78-4.89-1.75-6.74,.1L2.6,70.75s0,0,0,0c-1.89,1.89-1.89,4.98,0,6.87l2.76,2.76c.95,.95,2.19,1.42,3.43,1.42s2.49-.47,3.44-1.42l20.93-20.93c1.85-1.85,1.88-4.84,.1-6.74l6.84-6.84c4.23,3.59,9.49,5.69,15.13,5.96,.42,.02,.83,.03,1.25,.03,1.6,0,3.18-.15,4.72-.44,.08,.07,.14,.15,.19,.27,.23,.61,.48,1.21,.75,1.8,.1,.21,.09,.37-.01,.57-.64,1.25-1.26,2.51-1.89,3.76-.48,.96-.35,1.81,.4,2.57,.53,.54,1.07,1.07,1.6,1.6,.46,.46,.96,.7,1.5,.7,.34,0,.69-.09,1.06-.28,1.26-.62,2.51-1.25,3.76-1.89,.11-.06,.21-.09,.32-.09,.09,0,.18,.02,.28,.07,.59,.27,1.19,.51,1.8,.74,.2,.08,.31,.18,.38,.39,.44,1.36,.9,2.71,1.35,4.06,.33,.99,1.04,1.5,2.08,1.5,.36,0,.71,0,1.07,0,.4,0,.79,0,1.19,0,1.04,0,1.76-.51,2.09-1.5,.46-1.35,.91-2.7,1.35-4.06,.07-.2,.17-.32,.37-.39,.62-.23,1.23-.48,1.83-.76,.1-.04,.18-.07,.27-.07,.09,0,.17,.02,.27,.07,1.28,.65,2.57,1.3,3.86,1.93,.29,.14,.62,.21,.78,.26,.75-.02,1.25-.23,1.67-.65,.53-.53,1.07-1.06,1.6-1.6,.82-.82,.94-1.63,.42-2.67-.62-1.24-1.24-2.49-1.87-3.73-.1-.19-.09-.34,0-.54,.26-.57,.51-1.15,.72-1.74,.1-.26,.23-.41,.49-.49,1.33-.43,2.66-.88,3.99-1.32,.97-.33,1.48-1.04,1.49-2.06,0-.78,0-1.55,0-2.33ZM59.79,24.06c-1.28-.63-2.54-.43-3.54,.56-.79,.78-1.57,1.56-2.34,2.34-1.13,1.15-1.32,2.34-.6,3.78,.91,1.81,1.81,3.63,2.73,5.43,.14,.28,.13,.5,0,.78-.38,.84-.75,1.69-1.06,2.55-.13,.37-.34,.55-.7,.66-1.93,.63-3.85,1.27-5.77,1.91-1.39,.47-2.12,1.48-2.14,2.95-2.04-1.12-3.92-2.56-5.53-4.33-3.79-4.17-5.73-9.57-5.46-15.2,.27-5.63,2.72-10.81,6.89-14.6,3.91-3.55,8.91-5.48,14.16-5.48,.35,0,.69,0,1.04,.02,5.63,.27,10.81,2.72,14.6,6.89,1.34,1.48,2.44,3.11,3.3,4.85-.38,0-.76,0-1.15,0-1.48,.01-2.5,.75-2.97,2.16-.66,1.95-1.31,3.9-1.95,5.86-.1,.29-.24,.46-.54,.57-.89,.34-1.78,.7-2.65,1.09-.29,.13-.5,.13-.78-.01-1.85-.94-3.71-1.87-5.57-2.79Zm3.81,22.32c.2-6.66,5.62-11.99,12.31-11.98,.04,0,.07,0,.1,0-1.17,2.91-2.98,5.56-5.37,7.73-2.08,1.89-4.48,3.32-7.05,4.24Zm12.32,8.87h0s-.02,0-.04,0c-3.84-.02-7.08-2.57-8.13-6.05,2.06-1.03,3.99-2.34,5.74-3.93,2.12-1.93,3.87-4.16,5.2-6.6,3.34,1.15,5.74,4.3,5.75,8.03,.01,4.71-3.82,8.56-8.52,8.56Z"/></svg>