<?xml version="1.0" encoding="UTF-8"?><svg id="Layer_1" xmlns="http://www.w3.org/2000/svg" viewBox="0 0 91 70.58"><defs><style type="text/css">.cls-1{fill:#0079be;}</style></defs><path class="cls-1" d="M84.5,1.05H6.5C3.66,1.05,1.35,3.36,1.35,6.19V52.27c0,2.83,2.31,5.14,5.14,5.14H43.06v7.24h-12.96c-1.35,0-2.44,1.09-2.44,2.44s1.09,2.44,2.44,2.44h30.79c1.35,0,2.44-1.09,2.44-2.44s-1.09-2.44-2.44-2.44h-12.96v-7.24h36.57c2.83,0,5.14-2.31,5.14-5.14V6.19c0-2.83-2.31-5.14-5.14-5.14Zm.27,51.22c0,.15-.12,.27-.27,.27H6.5c-.15,0-.27-.12-.27-.27V6.19c0-.15,.12-.27,.27-.27H84.5c.15,0,.27,.12,.27,.27V52.27ZM45.5,14.32c-8.22,0-14.88,6.66-14.88,14.88s6.66,14.88,14.88,14.88,14.88-6.66,14.88-14.88-6.66-14.88-14.88-14.88Zm8.6,15.12l-12.6,7.27s-.08,.03-.12,.03-.09-.01-.12-.03c-.08-.04-.12-.13-.12-.22v-14.55c0-.09,.05-.17,.12-.22,.08-.04,.17-.04,.25,0l12.6,7.27c.08,.04,.12,.13,.12,.22s-.05,.17-.12,.22Z"/></svg>